PathFileType	4	(X/Y/Z)	C:\Users\Basilio\Documents\Thesis Gigler\squatting_fais\c3dfiles\038\SLS_front_pre1\markers_experimental.trc
DataRate	CameraRate	NumFrames	NumMarkers	Units	OrigDataRate	OrigDataStartFrame	OrigNumFrames
200.000000	200.000000	4	61	mm	200.000000	799	1279
Frame#	Time	FHD			LBHD			RBHD			C7			T10			CLAV			LSHO			LUUPA			LMUPA			LDUPA			LLEP			LMEP			LUL			LRFIN			RSHO			RUPA1			RMUPA			RDUPA			RLEP			RMEP			RRAD			RUL			RUFIN			LASI			RASI			USACR			LSACR			RSACR			LTHI1			LTHI2			LTHI3			LTHI4			LLFC			LMFC			LTIB1			LTIB2			LTIB3			LTIB4			LLMAL			LMMAL			LHEE			LMT1			LMT2			LMT5			RTHI			RTHI2			RTHI3			RTHI4			RLFC			RMFC			RTIB1			RTIB2			RTIB3			RTIB4			RLMAL			RMMAL			RHEE			RMT1			RMT2			RMT5			LRAD			
		X1	Y1	Z1	X2	Y2	Z2	X3	Y3	Z3	X4	Y4	Z4	X5	Y5	Z5	X6	Y6	Z6	X7	Y7	Z7	X8	Y8	Z8	X9	Y9	Z9	X10	Y10	Z10	X11	Y11	Z11	X12	Y12	Z12	X13	Y13	Z13	X14	Y14	Z14	X15	Y15	Z15	X16	Y16	Z16	X17	Y17	Z17	X18	Y18	Z18	X19	Y19	Z19	X20	Y20	Z20	X21	Y21	Z21	X22	Y22	Z22	X23	Y23	Z23	X24	Y24	Z24	X25	Y25	Z25	X26	Y26	Z26	X27	Y27	Z27	X28	Y28	Z28	X29	Y29	Z29	X30	Y30	Z30	X31	Y31	Z31	X32	Y32	Z32	X33	Y33	Z33	X34	Y34	Z34	X35	Y35	Z35	X36	Y36	Z36	X37	Y37	Z37	X38	Y38	Z38	X39	Y39	Z39	X40	Y40	Z40	X41	Y41	Z41	X42	Y42	Z42	X43	Y43	Z43	X44	Y44	Z44	X45	Y45	Z45	X46	Y46	Z46	X47	Y47	Z47	X48	Y48	Z48	X49	Y49	Z49	X50	Y50	Z50	X51	Y51	Z51	X52	Y52	Z52	X53	Y53	Z53	X54	Y54	Z54	X55	Y55	Z55	X56	Y56	Z56	X57	Y57	Z57	X58	Y58	Z58	X59	Y59	Z59	X60	Y60	Z60	X61	Y61	Z61	

800	3.995	-176.5151824951172	1494.88671875	-1127.13037109375	-332.8670043945313	1450.666259765625	-1191.841430664063	-327.6426391601563	1434.203002929688	-1047.281372070313	-402.6870422363282	1293.62060546875	-1113.14501953125	-470.0337219238282	1022.794372558594	-1070.171020507813	-260.6768798828126	1249.728759765625	-1124.994262695313	-333.1712341308594	1303.85400390625	-1253.528076171875	-170.8398132324219	1261.478759765625	-1383.153686523438	-145.0673370361328	1293.798950195313	-1352.778076171875	-101.6773910522461	1271.792724609375	-1388.029296875	-40.3049430847168	1277.326904296875	-1387.155151367188	-26.98892402648926	1204.237548828125	-1367.310791015625	253.7402343750001	1303.106323242188	-1353.011596679688	311.9207763671876	1320.38818359375	-1261.59228515625	-300.8995971679688	1309.57568359375	-992.5974731445315	-143.6958923339844	1304.257446289063	-878.104675292969	-109.4532089233399	1308.332763671875	-912.6993408203127	-75.14536285400392	1299.829223632813	-863.191833496094	-2.935850858688355	1295.846557617188	-854.5322265625002	4.135927200317384	1218.210083007813	-870.3042602539065	278.5603332519532	1296.814208984375	-908.4866333007815	282.2530212402344	1308.557250976563	-839.0471801757815	356.4776306152344	1334.727294921875	-905.104919433594	-309.2803039550782	827.8125000000002	-1148.444580078125	-348.0754699707032	857.6519775390627	-902.674987792969	-495.1319580078126	856.9418945312502	-1044.469848632813	-499.1686096191407	822.6516723632815	-1070.478881835938	-506.887420654297	827.1016235351565	-1014.640014648438	-171.9017639160157	570.8046875000001	-1202.927734375	-97.0672302246094	528.1179199218751	-1200.330078125	-64.5550994873047	558.0939331054689	-1175.7294921875	-89.48715209960939	469.5836486816407	-1184.084716796875	-64.45168304443361	424.0363769531251	-1169.459838867188	-57.29963684082033	429.922088623047	-1053.1259765625	-118.9266738891602	265.3199462890626	-1070.282470703125	-180.9972381591797	245.6755523681641	-1133.13671875	-152.8944702148438	226.8182525634766	-1098.660888671875	-210.3087158203126	177.6489562988282	-1060.520263671875	-356.2605285644532	112.5296478271485	-1077.127319335938	-314.3359680175782	125.9458465576172	-1002.10546875	-417.238250732422	95.81874847412111	-1016.521362304688	-215.1001892089844	44.98520660400391	-1016.524108886719	-209.8833160400391	43.59981918334962	-1067.37060546875	-257.3800354003907	33.52558135986329	-1111.891845703125	-228.5518188476563	643.3528442382814	-836.0711059570315	-161.4617004394532	640.1142578125001	-836.0025634765627	-143.0898590087891	666.5228881835939	-842.0718994140627	-116.5816497802735	567.1376342773439	-851.0014648437502	0.3021942675113679	497.4057006835939	-862.4822998046877	1.740657210350037	497.9213256835939	-983.9573974609377	163.5695190429688	415.368133544922	-887.378601074219	171.8662261962891	304.2163085937501	-853.2830810546877	200.2379455566407	340.6162719726563	-862.2957763671877	246.412826538086	317.0538330078126	-890.5583496093752	297.5314941406251	186.0197448730469	-860.979919433594	312.6361389160157	218.574447631836	-940.1882934570315	308.0649414062501	110.3383255004883	-926.393981933594	432.2004699707032	288.2453918457032	-903.3945922851565	421.7673339843751	288.3486938476563	-856.8054809570315	412.4408264160157	240.6421661376954	-815.1181640625002	nan	nan	nan	
801	4	-176.8022155761719	1495.37451171875	-1127.22607421875	-333.1221008300782	1451.098876953125	-1191.884765625	-327.8198852539063	1434.545532226563	-1047.36865234375	-402.7950439453126	1294.00830078125	-1113.300170898438	-469.8925781250001	1023.082458496094	-1070.121459960938	-260.6966552734376	1250.060791015625	-1125.098999023438	-333.4029846191407	1304.181396484375	-1253.610961914063	-170.9641723632813	1261.744995117188	-1383.311279296875	-145.270263671875	1294.336303710938	-1353.077880859375	-101.8027648925782	1272.0810546875	-1388.15234375	-40.42661285400391	1277.654174804688	-1387.328369140625	-27.12520790100098	1204.47998046875	-1367.447509765625	253.7172851562501	1303.454223632813	-1353.248779296875	311.6452636718751	1320.7138671875	-1261.831787109375	-300.9817504882813	1310.001342773438	-992.7041015625002	-143.9133911132813	1304.94921875	-878.1419677734377	-109.4622955322266	1308.677124023438	-912.7205810546877	-75.28033447265626	1300.29345703125	-863.3132934570315	-3.040362596511842	1296.306884765625	-854.627136230469	4.047346591949464	1218.813842773438	-870.2869262695315	278.4457092285157	1297.567138671875	-908.6384277343752	282.0127868652344	1309.292114257813	-839.1511230468752	356.2910461425782	1335.03955078125	-905.018005371094	-309.3166198730469	828.2014770507815	-1148.49462890625	-347.7987060546876	858.0522460937502	-902.7522583007815	-494.9745483398439	857.2225341796877	-1044.417602539063	-499.204559326172	823.074401855469	-1070.400390625	-506.7357482910157	827.4705810546877	-1014.561462402344	-172.2022399902344	570.6687011718751	-1203.003051757813	-97.13156890869143	528.2738647460939	-1200.409301757813	-64.57054138183595	558.2467041015626	-1175.849487304688	-89.62977600097658	469.7771301269532	-1184.177734375	-64.59771728515626	424.2232360839845	-1169.625122070313	-57.68952560424806	430.5416870117189	-1053.286743164063	-118.9942016601563	265.4452819824219	-1070.416748046875	-181.0752258300782	245.7160949707032	-1133.289428710938	-152.9959716796875	227.0763092041016	-1098.699462890625	-210.2701568603516	177.7659912109375	-1060.684326171875	-356.1883544921876	112.3471603393555	-1077.240234375	-314.2922058105469	125.98291015625	-1002.182800292969	-417.2304992675782	95.82850646972658	-1016.4892578125	-215.1085205078126	44.9859848022461	-1016.531921386719	-209.864730834961	43.60175704956055	-1067.337890625	-257.3914489746094	33.48100662231446	-1111.9013671875	-228.1345672607422	644.0679931640626	-835.7279052734377	-161.2886199951172	640.4677734375001	-835.995788574219	-142.9203643798828	666.8110961914064	-842.177429199219	-116.4853820800782	567.3238525390626	-850.9456176757815	0.3378857672214509	497.5917358398439	-862.3851318359377	1.850447893142701	498.1390991210939	-983.9670410156252	163.6600494384766	415.550994873047	-887.3656005859377	171.9599761962891	304.4522399902344	-853.2512817382815	200.3388977050782	340.7474670410157	-862.327575683594	246.4913635253907	317.1964416503907	-890.558288574219	297.6262512207032	186.2516326904297	-860.9356079101565	312.5925292968751	218.7249298095704	-940.1999511718752	308.0875244140626	110.5064926147461	-926.288024902344	432.1444396972657	288.4578552246094	-903.418640136719	421.9197692871095	288.4414062500001	-856.8052978515627	412.5250854492189	240.7887268066407	-815.0964965820315	nan	nan	nan	
802	4.005	-177.1206970214844	1495.883178710938	-1127.311279296875	-333.4062805175782	1451.482666015625	-1191.845458984375	-328.0191345214844	1434.933471679688	-1047.407958984375	-402.935760498047	1294.466430664063	-1113.370849609375	-469.8438720703126	1023.421447753906	-1070.027221679688	-260.7928466796876	1250.390014648438	-1125.201416015625	-333.5850830078126	1304.552856445313	-1253.741333007813	-171.0960540771485	1262.064208984375	-1383.497314453125	-145.3873138427735	1294.7509765625	-1353.381713867188	-102.4996719360352	1272.672485351563	-1388.308227539063	-40.56946182250977	1277.981811523438	-1387.414672851563	-27.2444076538086	1204.894897460938	-1367.583862304688	253.5311737060547	1303.823608398438	-1353.485717773438	311.3210754394532	1321.12353515625	-1262.175048828125	-301.0549926757813	1310.4091796875	-992.8455810546877	-143.995849609375	1305.470825195313	-878.1118774414065	-109.6003799438477	1309.196411132813	-912.8416748046877	-75.39575195312501	1300.906372070313	-863.4471435546877	-3.125899553298951	1296.926879882813	-854.715759277344	3.970500230789185	1219.447265625	-870.3021240234377	278.3511657714844	1298.085571289063	-908.6597900390627	281.9373474121094	1309.909423828125	-839.3327636718752	356.2210388183594	1335.868286132813	-905.5454101562502	-309.2797241210938	828.6633911132815	-1148.622802734375	-347.5475769042969	858.380310058594	-902.7276611328127	-494.9016418457032	857.698181152344	-1044.16845703125	-498.3635253906251	823.0384521484377	-1070.08740234375	-506.6442871093751	827.7580566406252	-1014.396789550781	-172.3709869384766	570.9595336914064	-1203.060424804688	-97.28180694580081	528.4615478515626	-1200.559448242188	-64.57472991943361	558.4942016601564	-1176.002197265625	-89.70749664306642	470.0667724609376	-1184.241943359375	-64.81495666503908	424.404754638672	-1169.758422851563	-57.78770828247072	430.710174560547	-1053.440307617188	-119.0737686157227	265.5687561035157	-1070.631225585938	-181.201416015625	245.9264221191407	-1133.377563476563	-153.0575866699219	227.1622161865235	-1098.86962890625	-210.2973022460938	177.8612976074219	-1060.829223632813	-356.1271667480469	112.3358993530274	-1077.291137695313	-314.2468872070313	126.0457458496094	-1002.240356445313	-417.2212219238282	95.8471145629883	-1016.495056152344	-215.0911102294922	45.0429801940918	-1016.556579589844	-209.8937988281251	43.5900993347168	-1067.36083984375	-257.4092407226563	33.44743728637696	-1111.927978515625	-227.9356536865235	644.4923706054689	-835.6724243164065	-161.0933685302735	640.8291015625001	-836.095153808594	-142.6842803955078	667.1025390625001	-842.1265869140627	-116.3334274291992	567.5574951171876	-850.9255371093752	0.4437908530235292	497.7189025878907	-862.3303833007815	1.905322670936585	498.2131347656251	-983.8900146484377	163.6277618408203	415.8367919921876	-887.2832031250002	171.9761047363282	304.6305236816407	-853.268981933594	200.3631286621094	340.9899597167969	-862.3367919921877	246.5671081542969	317.3614501953126	-890.4377441406252	297.6420593261719	186.3646545410157	-860.9941406250002	312.6091308593751	218.916000366211	-940.1599121093752	309.3160400390626	109.9730682373047	-926.5203247070315	432.1818847656251	288.7038269042969	-903.480651855469	421.9093627929689	288.6645812988282	-856.8320312500002	412.6666564941407	240.9022827148438	-815.112731933594	nan	nan	nan	
803	4.01	-177.3989562988282	1496.08154296875	-1127.236083984375	-333.6494750976563	1451.964477539063	-1191.947875976563	-328.2643127441407	1435.302978515625	-1047.495361328125	-403.0359802246095	1294.848266601563	-1113.486328125	-469.762664794922	1023.7607421875	-1069.950317382813	-260.9372558593751	1250.89013671875	-1125.248901367188	-333.8172607421876	1304.895141601563	-1253.919067382813	-171.2714996337891	1262.448974609375	-1383.49853515625	-145.5998687744141	1295.027954101563	-1353.529052734375	-102.2274932861328	1272.65576171875	-1388.486206054688	-40.73699569702149	1278.348999023438	-1387.633544921875	-27.44065284729005	1205.200439453125	-1367.645629882813	253.3171997070313	1304.2412109375	-1353.681640625	311.0863037109376	1321.703369140625	-1262.397827148438	-301.1567993164063	1310.9453125	-992.9685058593752	-144.0336303710938	1305.9521484375	-878.2927246093752	-109.7331924438477	1309.779418945313	-912.9937744140627	-75.34925079345705	1301.5703125	-863.5827636718752	-3.167538881301881	1297.548583984375	-854.8369140625002	3.894398212432862	1220.161010742188	-870.458679199219	278.2319030761719	1298.5693359375	-908.7371215820315	282.0343322753907	1310.629150390625	-839.5030517578127	356.1578674316407	1336.5810546875	-905.660827636719	-309.3067016601563	828.949645996094	-1148.578735351563	-347.3693847656251	858.7846679687502	-902.629577636719	-494.807830810547	858.147644042969	-1044.008544921875	-498.3165283203126	823.4310302734377	-1069.9541015625	-506.5047912597657	828.3016357421877	-1014.273742675781	-172.3786773681641	571.1897583007814	-1203.184814453125	-97.3914489746094	528.6240844726564	-1200.655151367188	-64.67637634277345	558.7630615234376	-1176.206298828125	-89.87491607666017	470.2334594726564	-1184.370971679688	-64.96273803710939	424.7154541015626	-1169.892822265625	-57.93630599975587	430.8591918945314	-1053.635864257813	-119.1392593383789	265.6741943359376	-1070.787719726563	-181.3274383544922	246.0447082519532	-1133.548095703125	-153.1611938476563	227.2596435546876	-1098.903686523438	-210.3279418945313	177.9666290283203	-1061.031860351563	-356.3342895507813	112.5845565795899	-1077.283325195313	-313.9677429199219	126.3654251098633	-1002.201599121094	-417.212860107422	95.84218597412111	-1016.541015625	-215.047592163086	45.10234451293946	-1016.533325195313	-209.8654479980469	43.55060577392579	-1067.368286132813	-257.4396667480469	33.43540191650391	-1111.927734375	-227.8255004882813	644.8862304687501	-835.6028442382815	-160.9803924560547	641.2915039062501	-836.1011962890627	-142.4425964355469	667.4495849609376	-842.150329589844	-116.2753448486328	567.9027709960939	-850.9201660156252	0.451201230287552	497.9815673828126	-862.3001098632815	2.009182691574097	498.4078674316407	-983.8846435546877	163.5949859619141	416.0057678222657	-887.1958618164065	171.9750061035157	304.8328552246094	-853.3103027343752	200.3433380126954	341.1452636718751	-862.4342041015627	246.5516357421876	317.4540710449219	-890.2718505859377	297.6970520019532	186.5853576660157	-860.9261474609377	312.5247192382813	219.0782165527344	-940.1419677734377	305.6401672363282	112.5315780639649	-925.9031982421877	432.1538696289064	288.8973083496094	-903.4925537109377	422.4495544433595	288.4158325195313	-856.7127685546877	412.7067871093751	241.1018066406251	-815.099060058594	nan	nan	nan	
